<svg id="air-conditioner_1_" data-name="air-conditioner (1)" xmlns="http://www.w3.org/2000/svg" width="73.897" height="32.022" viewBox="0 0 73.897 32.022">
  <path id="Path_48" data-name="Path 48" d="M67.738.5H6.158A6.165,6.165,0,0,0,0,6.658V26.364a6.165,6.165,0,0,0,6.158,6.158h61.58A6.165,6.165,0,0,0,73.9,26.364V6.658A6.165,6.165,0,0,0,67.738.5ZM62.812,30.059H11.084V26.364a1.232,1.232,0,0,1,1.232-1.232H61.58a1.232,1.232,0,0,1,1.232,1.232Zm8.621-3.695a3.7,3.7,0,0,1-3.695,3.695H65.275V26.364a3.7,3.7,0,0,0-3.695-3.695H12.316a3.7,3.7,0,0,0-3.695,3.695v3.695H6.158a3.7,3.7,0,0,1-3.695-3.695V6.658A3.7,3.7,0,0,1,6.158,2.963h61.58a3.7,3.7,0,0,1,3.695,3.695Zm0,0" transform="translate(0 -0.5)" fill="#00ec98"/>
  <path id="Path_59" data-name="Path 59" d="M336,48.5h12.316v2.463H336Zm0,0" transform="translate(-284.272 -41.11)" fill="#00ec98"/>
  <path id="Path_60" data-name="Path 60" d="M304,48.5h2.463v2.463H304Zm0,0" transform="translate(-257.199 -41.11)" fill="#00ec98"/>
</svg>
