<svg id="light-bulb-on" xmlns="http://www.w3.org/2000/svg" width="50.337" height="53.861" viewBox="0 0 50.337 53.861">
  <path id="Path_47" data-name="Path 47" d="M56.129,6.2l1.441-2.422a1.2,1.2,0,0,1,2.095,1.174L58.223,7.374a1.172,1.172,0,0,1-1.047.587,1.873,1.873,0,0,1-.587-.133A1.175,1.175,0,0,1,56.129,6.2ZM34.946,7.38a1.172,1.172,0,0,0,1.047.587,1.874,1.874,0,0,0,.587-.133,1.189,1.189,0,0,0,.46-1.635L35.6,3.778a1.2,1.2,0,0,0-2.095,1.174ZM46.582,5.158a1.168,1.168,0,0,0,1.174-1.174V1.174a1.174,1.174,0,1,0-2.349,0V3.983A1.1,1.1,0,0,0,46.582,5.158ZM25.4,23.919H22.59a1.174,1.174,0,1,0,0,2.349H25.4a1.174,1.174,0,0,0,0-2.349Zm45.18,0H67.77a1.174,1.174,0,1,0,0,2.349h2.809a1.174,1.174,0,0,0,0-2.349ZM68.418,12.544a1.189,1.189,0,0,0-1.635-.46l-2.422,1.441a1.189,1.189,0,0,0-.46,1.635,1.172,1.172,0,0,0,1.047.587,1.873,1.873,0,0,0,.587-.133l2.422-1.441A1.176,1.176,0,0,0,68.418,12.544Zm-6.4,12.422a15.752,15.752,0,0,1-2.028,7.652,1.142,1.142,0,0,1-.26.46l-.133.194a14.014,14.014,0,0,1-1.7,2.222c-2.288,3.2-3.463,5.951-3.4,7.713v.067c0,.133.067.327.067.521v5.624a4.45,4.45,0,0,1-4.443,4.443H42.859a4.45,4.45,0,0,1-4.443-4.443V43.206c.067-1.7-1.114-4.383-3.269-7.519a12.954,12.954,0,0,1-1.961-2.615c-.067-.133-.133-.194-.194-.327A15.36,15.36,0,0,1,30.9,25.033a15.558,15.558,0,0,1,31.117-.067ZM52.139,44.447H40.831v2.222H52.139V44.447Zm0,5.1v-.46H40.831v.46a2.048,2.048,0,0,0,2.028,1.828h7.259A2.043,2.043,0,0,0,52.139,49.551Zm7.452-24.585a13.143,13.143,0,1,0-26.286,0,13.312,13.312,0,0,0,1.828,6.671h0V31.7A15.843,15.843,0,0,0,36.9,34.059l.133.133q3.233,4.613,3.729,7.846H52.206c.394-2.682,2.222-5.751,3.856-8.04,0-.067.067-.067.133-.133a8.894,8.894,0,0,0,1.5-2.028c0-.067.067-.067.067-.133s.067-.067.067-.133A12.831,12.831,0,0,0,59.591,24.966ZM28.8,13.524,26.38,12.083a1.2,1.2,0,0,0-1.174,2.095l2.422,1.441a.954.954,0,0,0,.587.133,1.179,1.179,0,0,0,1.047-.587A1.2,1.2,0,0,0,28.8,13.524Z" transform="translate(-21.416 0)" fill="#00ec98"/>
</svg>
