<svg id="power" xmlns="http://www.w3.org/2000/svg" width="22.752" height="25.805" viewBox="0 0 22.752 25.805">
  <g id="Group_4" data-name="Group 4" transform="translate(0)">
    <g id="Group_3" data-name="Group 3">
      <path id="Path_19" data-name="Path 19" d="M47.242,72.045s-1.37-.616-1.37.824a3.268,3.268,0,0,0,1.374,2.4,8.764,8.764,0,0,1-4.561,16.1,8.764,8.764,0,0,1-4.561-16.1,3.268,3.268,0,0,0,1.374-2.4c0-1.44-1.37-.824-1.37-.824a11.6,11.6,0,0,0,4.556,22.167,11.6,11.6,0,0,0,4.556-22.167Z" transform="translate(-31.31 -68.408)" fill="#66667e"/>
      <path id="Path_20" data-name="Path 20" d="M233.639,0a1.519,1.519,0,0,0-1.673,1.3V12.722a1.519,1.519,0,0,0,1.673,1.3,1.343,1.343,0,0,0,1.514-1.3V1.3A1.343,1.343,0,0,0,233.639,0Z" transform="translate(-222.183)" fill="#66667e"/>
    </g>
  </g>
</svg>
